<?xml version="1.0" encoding="utf-8" standalone="no"?>
<!DOCTYPE svg PUBLIC "-//W3C//DTD SVG 1.1//EN"
  "http://www.w3.org/Graphics/SVG/1.1/DTD/svg11.dtd">
<svg xmlns:xlink="http://www.w3.org/1999/xlink" width="500.01pt" height="457.904375pt" viewBox="0 0 500.01 457.904375" xmlns="http://www.w3.org/2000/svg" version="1.1">
 <metadata>
  <rdf:RDF xmlns:dc="http://purl.org/dc/elements/1.1/" xmlns:cc="http://creativecommons.org/ns#" xmlns:rdf="http://www.w3.org/1999/02/22-rdf-syntax-ns#">
   <cc:Work>
    <dc:type rdf:resource="http://purl.org/dc/dcmitype/StillImage"/>
    <dc:date>2024-01-16T15:59:12.635183</dc:date>
    <dc:format>image/svg+xml</dc:format>
    <dc:creator>
     <cc:Agent>
      <dc:title>Matplotlib v3.5.2, https://matplotlib.org/</dc:title>
     </cc:Agent>
    </dc:creator>
   </cc:Work>
  </rdf:RDF>
 </metadata>
 <defs>
  <style type="text/css">*{stroke-linejoin: round; stroke-linecap: butt}</style>
 </defs>
 <g id="figure_1">
  <g id="patch_1">
   <path d="M 0 457.904375 
L 500.01 457.904375 
L 500.01 0 
L 0 0 
z
" style="fill: #ffffff"/>
  </g>
  <g id="axes_1">
   <g id="patch_2">
    <path d="M 46.41 416.476875 
L 492.81 416.476875 
L 492.81 28.396875 
L 46.41 28.396875 
z
" style="fill: #ffffff"/>
   </g>
   <g id="PathCollection_1">
    <defs>
     <path id="m0cb5a0c9fb" d="M 0 3 
C 0.795609 3 1.55874 2.683901 2.12132 2.12132 
C 2.683901 1.55874 3 0.795609 3 0 
C 3 -0.795609 2.683901 -1.55874 2.12132 -2.12132 
C 1.55874 -2.683901 0.795609 -3 0 -3 
C -0.795609 -3 -1.55874 -2.683901 -2.12132 -2.12132 
C -2.683901 -1.55874 -3 -0.795609 -3 0 
C -3 0.795609 -2.683901 1.55874 -2.12132 2.12132 
C -1.55874 2.683901 -0.795609 3 0 3 
z
" style="stroke: #d55e00"/>
    </defs>
    <g clip-path="url(#p87ffccee73)">
     <use xlink:href="#m0cb5a0c9fb" x="66.700909" y="399.20351" style="fill: #d55e00; stroke: #d55e00"/>
     <use xlink:href="#m0cb5a0c9fb" x="168.155455" y="399.20351" style="fill: #d55e00; stroke: #d55e00"/>
     <use xlink:href="#m0cb5a0c9fb" x="269.61" y="399.20351" style="fill: #d55e00; stroke: #d55e00"/>
     <use xlink:href="#m0cb5a0c9fb" x="371.064545" y="399.20351" style="fill: #d55e00; stroke: #d55e00"/>
     <use xlink:href="#m0cb5a0c9fb" x="472.519091" y="399.20351" style="fill: #d55e00; stroke: #d55e00"/>
     <use xlink:href="#m0cb5a0c9fb" x="66.700909" y="399.20351" style="fill: #d55e00; stroke: #d55e00"/>
     <use xlink:href="#m0cb5a0c9fb" x="168.155455" y="399.20351" style="fill: #d55e00; stroke: #d55e00"/>
     <use xlink:href="#m0cb5a0c9fb" x="269.61" y="399.20351" style="fill: #d55e00; stroke: #d55e00"/>
     <use xlink:href="#m0cb5a0c9fb" x="371.064545" y="399.20351" style="fill: #d55e00; stroke: #d55e00"/>
     <use xlink:href="#m0cb5a0c9fb" x="472.519091" y="399.20351" style="fill: #d55e00; stroke: #d55e00"/>
     <use xlink:href="#m0cb5a0c9fb" x="66.700909" y="399.20351" style="fill: #d55e00; stroke: #d55e00"/>
     <use xlink:href="#m0cb5a0c9fb" x="168.155455" y="399.20351" style="fill: #d55e00; stroke: #d55e00"/>
     <use xlink:href="#m0cb5a0c9fb" x="269.61" y="399.20351" style="fill: #d55e00; stroke: #d55e00"/>
     <use xlink:href="#m0cb5a0c9fb" x="371.064545" y="390.833157" style="fill: #d55e00; stroke: #d55e00"/>
     <use xlink:href="#m0cb5a0c9fb" x="472.519091" y="399.20351" style="fill: #d55e00; stroke: #d55e00"/>
     <use xlink:href="#m0cb5a0c9fb" x="66.700909" y="399.20351" style="fill: #d55e00; stroke: #d55e00"/>
     <use xlink:href="#m0cb5a0c9fb" x="371.064545" y="397.377251" style="fill: #d55e00; stroke: #d55e00"/>
     <use xlink:href="#m0cb5a0c9fb" x="472.519091" y="398.518663" style="fill: #d55e00; stroke: #d55e00"/>
     <use xlink:href="#m0cb5a0c9fb" x="66.700909" y="399.20351" style="fill: #d55e00; stroke: #d55e00"/>
     <use xlink:href="#m0cb5a0c9fb" x="168.155455" y="399.20351" style="fill: #d55e00; stroke: #d55e00"/>
     <use xlink:href="#m0cb5a0c9fb" x="269.61" y="399.20351" style="fill: #d55e00; stroke: #d55e00"/>
     <use xlink:href="#m0cb5a0c9fb" x="371.064545" y="381.169204" style="fill: #d55e00; stroke: #d55e00"/>
     <use xlink:href="#m0cb5a0c9fb" x="472.519091" y="399.20351" style="fill: #d55e00; stroke: #d55e00"/>
     <use xlink:href="#m0cb5a0c9fb" x="371.064545" y="399.20351" style="fill: #d55e00; stroke: #d55e00"/>
     <use xlink:href="#m0cb5a0c9fb" x="472.519091" y="399.20351" style="fill: #d55e00; stroke: #d55e00"/>
     <use xlink:href="#m0cb5a0c9fb" x="66.700909" y="399.20351" style="fill: #d55e00; stroke: #d55e00"/>
     <use xlink:href="#m0cb5a0c9fb" x="168.155455" y="396.844593" style="fill: #d55e00; stroke: #d55e00"/>
     <use xlink:href="#m0cb5a0c9fb" x="269.61" y="398.975228" style="fill: #d55e00; stroke: #d55e00"/>
     <use xlink:href="#m0cb5a0c9fb" x="371.064545" y="399.20351" style="fill: #d55e00; stroke: #d55e00"/>
     <use xlink:href="#m0cb5a0c9fb" x="66.700909" y="399.20351" style="fill: #d55e00; stroke: #d55e00"/>
     <use xlink:href="#m0cb5a0c9fb" x="168.155455" y="399.20351" style="fill: #d55e00; stroke: #d55e00"/>
     <use xlink:href="#m0cb5a0c9fb" x="269.61" y="399.20351" style="fill: #d55e00; stroke: #d55e00"/>
     <use xlink:href="#m0cb5a0c9fb" x="371.064545" y="399.20351" style="fill: #d55e00; stroke: #d55e00"/>
     <use xlink:href="#m0cb5a0c9fb" x="472.519091" y="399.20351" style="fill: #d55e00; stroke: #d55e00"/>
     <use xlink:href="#m0cb5a0c9fb" x="66.700909" y="399.20351" style="fill: #d55e00; stroke: #d55e00"/>
     <use xlink:href="#m0cb5a0c9fb" x="168.155455" y="399.20351" style="fill: #d55e00; stroke: #d55e00"/>
     <use xlink:href="#m0cb5a0c9fb" x="269.61" y="399.20351" style="fill: #d55e00; stroke: #d55e00"/>
     <use xlink:href="#m0cb5a0c9fb" x="371.064545" y="399.20351" style="fill: #d55e00; stroke: #d55e00"/>
     <use xlink:href="#m0cb5a0c9fb" x="472.519091" y="399.20351" style="fill: #d55e00; stroke: #d55e00"/>
     <use xlink:href="#m0cb5a0c9fb" x="66.700909" y="399.20351" style="fill: #d55e00; stroke: #d55e00"/>
     <use xlink:href="#m0cb5a0c9fb" x="168.155455" y="399.20351" style="fill: #d55e00; stroke: #d55e00"/>
     <use xlink:href="#m0cb5a0c9fb" x="269.61" y="399.20351" style="fill: #d55e00; stroke: #d55e00"/>
     <use xlink:href="#m0cb5a0c9fb" x="371.064545" y="399.20351" style="fill: #d55e00; stroke: #d55e00"/>
     <use xlink:href="#m0cb5a0c9fb" x="472.519091" y="399.20351" style="fill: #d55e00; stroke: #d55e00"/>
     <use xlink:href="#m0cb5a0c9fb" x="66.700909" y="393.192075" style="fill: #d55e00; stroke: #d55e00"/>
     <use xlink:href="#m0cb5a0c9fb" x="168.155455" y="397.90991" style="fill: #d55e00; stroke: #d55e00"/>
     <use xlink:href="#m0cb5a0c9fb" x="269.61" y="399.20351" style="fill: #d55e00; stroke: #d55e00"/>
     <use xlink:href="#m0cb5a0c9fb" x="472.519091" y="399.20351" style="fill: #d55e00; stroke: #d55e00"/>
    </g>
   </g>
   <g id="PathCollection_2">
    <defs>
     <path id="m64a7665745" d="M 0 3 
C 0.795609 3 1.55874 2.683901 2.12132 2.12132 
C 2.683901 1.55874 3 0.795609 3 0 
C 3 -0.795609 2.683901 -1.55874 2.12132 -2.12132 
C 1.55874 -2.683901 0.795609 -3 0 -3 
C -0.795609 -3 -1.55874 -2.683901 -2.12132 -2.12132 
C -2.683901 -1.55874 -3 -0.795609 -3 0 
C -3 0.795609 -2.683901 1.55874 -2.12132 2.12132 
C -1.55874 2.683901 -0.795609 3 0 3 
z
" style="stroke: #0072b2"/>
    </defs>
    <g clip-path="url(#p87ffccee73)">
     <use xlink:href="#m64a7665745" x="66.700909" y="386.876263" style="fill: #0072b2; stroke: #0072b2"/>
     <use xlink:href="#m64a7665745" x="168.155455" y="381.09311" style="fill: #0072b2; stroke: #0072b2"/>
     <use xlink:href="#m64a7665745" x="269.61" y="387.789393" style="fill: #0072b2; stroke: #0072b2"/>
     <use xlink:href="#m64a7665745" x="371.064545" y="388.778616" style="fill: #0072b2; stroke: #0072b2"/>
     <use xlink:href="#m64a7665745" x="472.519091" y="365.722099" style="fill: #0072b2; stroke: #0072b2"/>
     <use xlink:href="#m64a7665745" x="66.700909" y="348.296546" style="fill: #0072b2; stroke: #0072b2"/>
     <use xlink:href="#m64a7665745" x="168.155455" y="360.167228" style="fill: #0072b2; stroke: #0072b2"/>
     <use xlink:href="#m64a7665745" x="269.61" y="368.461487" style="fill: #0072b2; stroke: #0072b2"/>
     <use xlink:href="#m64a7665745" x="472.519091" y="375.690428" style="fill: #0072b2; stroke: #0072b2"/>
     <use xlink:href="#m64a7665745" x="66.700909" y="391.822381" style="fill: #0072b2; stroke: #0072b2"/>
     <use xlink:href="#m64a7665745" x="168.155455" y="392.887699" style="fill: #0072b2; stroke: #0072b2"/>
     <use xlink:href="#m64a7665745" x="269.61" y="399.20351" style="fill: #0072b2; stroke: #0072b2"/>
     <use xlink:href="#m64a7665745" x="371.064545" y="387.18064" style="fill: #0072b2; stroke: #0072b2"/>
     <use xlink:href="#m64a7665745" x="472.519091" y="221.59984" style="fill: #0072b2; stroke: #0072b2"/>
     <use xlink:href="#m64a7665745" x="66.700909" y="391.06144" style="fill: #0072b2; stroke: #0072b2"/>
     <use xlink:href="#m64a7665745" x="168.155455" y="398.899134" style="fill: #0072b2; stroke: #0072b2"/>
     <use xlink:href="#m64a7665745" x="269.61" y="399.20351" style="fill: #0072b2; stroke: #0072b2"/>
     <use xlink:href="#m64a7665745" x="371.064545" y="399.20351" style="fill: #0072b2; stroke: #0072b2"/>
     <use xlink:href="#m64a7665745" x="472.519091" y="399.20351" style="fill: #0072b2; stroke: #0072b2"/>
     <use xlink:href="#m64a7665745" x="66.700909" y="387.485016" style="fill: #0072b2; stroke: #0072b2"/>
     <use xlink:href="#m64a7665745" x="168.155455" y="398.518663" style="fill: #0072b2; stroke: #0072b2"/>
     <use xlink:href="#m64a7665745" x="269.61" y="392.963793" style="fill: #0072b2; stroke: #0072b2"/>
     <use xlink:href="#m64a7665745" x="371.064545" y="394.561769" style="fill: #0072b2; stroke: #0072b2"/>
     <use xlink:href="#m64a7665745" x="472.519091" y="396.007557" style="fill: #0072b2; stroke: #0072b2"/>
     <use xlink:href="#m64a7665745" x="66.700909" y="399.20351" style="fill: #0072b2; stroke: #0072b2"/>
     <use xlink:href="#m64a7665745" x="269.61" y="399.20351" style="fill: #0072b2; stroke: #0072b2"/>
     <use xlink:href="#m64a7665745" x="371.064545" y="399.20351" style="fill: #0072b2; stroke: #0072b2"/>
     <use xlink:href="#m64a7665745" x="472.519091" y="399.20351" style="fill: #0072b2; stroke: #0072b2"/>
     <use xlink:href="#m64a7665745" x="66.700909" y="399.20351" style="fill: #0072b2; stroke: #0072b2"/>
     <use xlink:href="#m64a7665745" x="168.155455" y="399.20351" style="fill: #0072b2; stroke: #0072b2"/>
     <use xlink:href="#m64a7665745" x="269.61" y="399.20351" style="fill: #0072b2; stroke: #0072b2"/>
     <use xlink:href="#m64a7665745" x="472.519091" y="399.20351" style="fill: #0072b2; stroke: #0072b2"/>
     <use xlink:href="#m64a7665745" x="66.700909" y="374.777299" style="fill: #0072b2; stroke: #0072b2"/>
     <use xlink:href="#m64a7665745" x="168.155455" y="387.408922" style="fill: #0072b2; stroke: #0072b2"/>
     <use xlink:href="#m64a7665745" x="472.519091" y="399.20351" style="fill: #0072b2; stroke: #0072b2"/>
     <use xlink:href="#m64a7665745" x="66.700909" y="399.20351" style="fill: #0072b2; stroke: #0072b2"/>
     <use xlink:href="#m64a7665745" x="168.155455" y="399.20351" style="fill: #0072b2; stroke: #0072b2"/>
     <use xlink:href="#m64a7665745" x="269.61" y="399.20351" style="fill: #0072b2; stroke: #0072b2"/>
     <use xlink:href="#m64a7665745" x="472.519091" y="399.20351" style="fill: #0072b2; stroke: #0072b2"/>
     <use xlink:href="#m64a7665745" x="168.155455" y="399.20351" style="fill: #0072b2; stroke: #0072b2"/>
     <use xlink:href="#m64a7665745" x="269.61" y="399.20351" style="fill: #0072b2; stroke: #0072b2"/>
     <use xlink:href="#m64a7665745" x="371.064545" y="399.20351" style="fill: #0072b2; stroke: #0072b2"/>
     <use xlink:href="#m64a7665745" x="472.519091" y="399.20351" style="fill: #0072b2; stroke: #0072b2"/>
    </g>
   </g>
   <g id="PathCollection_3">
    <defs>
     <path id="m64fe587d1c" d="M 0 3 
C 0.795609 3 1.55874 2.683901 2.12132 2.12132 
C 2.683901 1.55874 3 0.795609 3 0 
C 3 -0.795609 2.683901 -1.55874 2.12132 -2.12132 
C 1.55874 -2.683901 0.795609 -3 0 -3 
C -0.795609 -3 -1.55874 -2.683901 -2.12132 -2.12132 
C -2.683901 -1.55874 -3 -0.795609 -3 0 
C -3 0.795609 -2.683901 1.55874 -2.12132 2.12132 
C -1.55874 2.683901 -0.795609 3 0 3 
z
" style="stroke: #b07aa1"/>
    </defs>
    <g clip-path="url(#p87ffccee73)">
     <use xlink:href="#m64fe587d1c" x="66.700909" y="399.20351" style="fill: #b07aa1; stroke: #b07aa1"/>
     <use xlink:href="#m64fe587d1c" x="168.155455" y="324.326899" style="fill: #b07aa1; stroke: #b07aa1"/>
     <use xlink:href="#m64fe587d1c" x="269.61" y="399.20351" style="fill: #b07aa1; stroke: #b07aa1"/>
     <use xlink:href="#m64fe587d1c" x="371.064545" y="399.20351" style="fill: #b07aa1; stroke: #b07aa1"/>
     <use xlink:href="#m64fe587d1c" x="472.519091" y="399.20351" style="fill: #b07aa1; stroke: #b07aa1"/>
     <use xlink:href="#m64fe587d1c" x="66.700909" y="374.168546" style="fill: #b07aa1; stroke: #b07aa1"/>
     <use xlink:href="#m64fe587d1c" x="168.155455" y="391.898475" style="fill: #b07aa1; stroke: #b07aa1"/>
     <use xlink:href="#m64fe587d1c" x="371.064545" y="388.702522" style="fill: #b07aa1; stroke: #b07aa1"/>
     <use xlink:href="#m64fe587d1c" x="472.519091" y="394.02911" style="fill: #b07aa1; stroke: #b07aa1"/>
     <use xlink:href="#m64fe587d1c" x="66.700909" y="388.930804" style="fill: #b07aa1; stroke: #b07aa1"/>
     <use xlink:href="#m64fe587d1c" x="168.155455" y="383.452028" style="fill: #b07aa1; stroke: #b07aa1"/>
     <use xlink:href="#m64fe587d1c" x="269.61" y="388.626428" style="fill: #b07aa1; stroke: #b07aa1"/>
     <use xlink:href="#m64fe587d1c" x="371.064545" y="392.507228" style="fill: #b07aa1; stroke: #b07aa1"/>
     <use xlink:href="#m64fe587d1c" x="472.519091" y="399.20351" style="fill: #b07aa1; stroke: #b07aa1"/>
     <use xlink:href="#m64fe587d1c" x="66.700909" y="395.094428" style="fill: #b07aa1; stroke: #b07aa1"/>
     <use xlink:href="#m64fe587d1c" x="168.155455" y="392.963793" style="fill: #b07aa1; stroke: #b07aa1"/>
     <use xlink:href="#m64fe587d1c" x="269.61" y="398.594757" style="fill: #b07aa1; stroke: #b07aa1"/>
     <use xlink:href="#m64fe587d1c" x="371.064545" y="399.20351" style="fill: #b07aa1; stroke: #b07aa1"/>
     <use xlink:href="#m64fe587d1c" x="472.519091" y="389.539557" style="fill: #b07aa1; stroke: #b07aa1"/>
     <use xlink:href="#m64fe587d1c" x="66.700909" y="397.757722" style="fill: #b07aa1; stroke: #b07aa1"/>
     <use xlink:href="#m64fe587d1c" x="168.155455" y="388.245957" style="fill: #b07aa1; stroke: #b07aa1"/>
     <use xlink:href="#m64fe587d1c" x="371.064545" y="399.20351" style="fill: #b07aa1; stroke: #b07aa1"/>
     <use xlink:href="#m64fe587d1c" x="472.519091" y="395.550993" style="fill: #b07aa1; stroke: #b07aa1"/>
     <use xlink:href="#m64fe587d1c" x="66.700909" y="392.963793" style="fill: #b07aa1; stroke: #b07aa1"/>
     <use xlink:href="#m64fe587d1c" x="168.155455" y="369.07024" style="fill: #b07aa1; stroke: #b07aa1"/>
     <use xlink:href="#m64fe587d1c" x="269.61" y="382.843275" style="fill: #b07aa1; stroke: #b07aa1"/>
     <use xlink:href="#m64fe587d1c" x="472.519091" y="114.078851" style="fill: #b07aa1; stroke: #b07aa1"/>
     <use xlink:href="#m64fe587d1c" x="66.700909" y="399.20351" style="fill: #b07aa1; stroke: #b07aa1"/>
     <use xlink:href="#m64fe587d1c" x="168.155455" y="399.20351" style="fill: #b07aa1; stroke: #b07aa1"/>
     <use xlink:href="#m64fe587d1c" x="269.61" y="399.20351" style="fill: #b07aa1; stroke: #b07aa1"/>
     <use xlink:href="#m64fe587d1c" x="371.064545" y="399.20351" style="fill: #b07aa1; stroke: #b07aa1"/>
     <use xlink:href="#m64fe587d1c" x="472.519091" y="399.20351" style="fill: #b07aa1; stroke: #b07aa1"/>
     <use xlink:href="#m64fe587d1c" x="66.700909" y="399.20351" style="fill: #b07aa1; stroke: #b07aa1"/>
     <use xlink:href="#m64fe587d1c" x="168.155455" y="395.855369" style="fill: #b07aa1; stroke: #b07aa1"/>
     <use xlink:href="#m64fe587d1c" x="269.61" y="399.20351" style="fill: #b07aa1; stroke: #b07aa1"/>
     <use xlink:href="#m64fe587d1c" x="371.064545" y="399.20351" style="fill: #b07aa1; stroke: #b07aa1"/>
     <use xlink:href="#m64fe587d1c" x="472.519091" y="399.20351" style="fill: #b07aa1; stroke: #b07aa1"/>
     <use xlink:href="#m64fe587d1c" x="66.700909" y="399.20351" style="fill: #b07aa1; stroke: #b07aa1"/>
     <use xlink:href="#m64fe587d1c" x="168.155455" y="338.936969" style="fill: #b07aa1; stroke: #b07aa1"/>
     <use xlink:href="#m64fe587d1c" x="269.61" y="399.20351" style="fill: #b07aa1; stroke: #b07aa1"/>
     <use xlink:href="#m64fe587d1c" x="371.064545" y="399.20351" style="fill: #b07aa1; stroke: #b07aa1"/>
     <use xlink:href="#m64fe587d1c" x="472.519091" y="394.790051" style="fill: #b07aa1; stroke: #b07aa1"/>
    </g>
   </g>
   <g id="matplotlib.axis_1">
    <g id="xtick_1">
     <g id="line2d_1">
      <defs>
       <path id="mf0f9e1ac55" d="M 0 0 
L 0 3.5 
" style="stroke: #000000; stroke-width: 0.8"/>
      </defs>
      <g>
       <use xlink:href="#mf0f9e1ac55" x="66.700909" y="416.476875" style="stroke: #000000; stroke-width: 0.8"/>
      </g>
     </g>
     <g id="text_1">
      <!-- Day 1 -->
      <g transform="translate(52.057159 431.075312)scale(0.1 -0.1)">
       <defs>
        <path id="DejaVuSans-44" d="M 1259 4147 
L 1259 519 
L 2022 519 
Q 2988 519 3436 956 
Q 3884 1394 3884 2338 
Q 3884 3275 3436 3711 
Q 2988 4147 2022 4147 
L 1259 4147 
z
M 628 4666 
L 1925 4666 
Q 3281 4666 3915 4102 
Q 4550 3538 4550 2338 
Q 4550 1131 3912 565 
Q 3275 0 1925 0 
L 628 0 
L 628 4666 
z
" transform="scale(0.015625)"/>
        <path id="DejaVuSans-61" d="M 2194 1759 
Q 1497 1759 1228 1600 
Q 959 1441 959 1056 
Q 959 750 1161 570 
Q 1363 391 1709 391 
Q 2188 391 2477 730 
Q 2766 1069 2766 1631 
L 2766 1759 
L 2194 1759 
z
M 3341 1997 
L 3341 0 
L 2766 0 
L 2766 531 
Q 2569 213 2275 61 
Q 1981 -91 1556 -91 
Q 1019 -91 701 211 
Q 384 513 384 1019 
Q 384 1609 779 1909 
Q 1175 2209 1959 2209 
L 2766 2209 
L 2766 2266 
Q 2766 2663 2505 2880 
Q 2244 3097 1772 3097 
Q 1472 3097 1187 3025 
Q 903 2953 641 2809 
L 641 3341 
Q 956 3463 1253 3523 
Q 1550 3584 1831 3584 
Q 2591 3584 2966 3190 
Q 3341 2797 3341 1997 
z
" transform="scale(0.015625)"/>
        <path id="DejaVuSans-79" d="M 2059 -325 
Q 1816 -950 1584 -1140 
Q 1353 -1331 966 -1331 
L 506 -1331 
L 506 -850 
L 844 -850 
Q 1081 -850 1212 -737 
Q 1344 -625 1503 -206 
L 1606 56 
L 191 3500 
L 800 3500 
L 1894 763 
L 2988 3500 
L 3597 3500 
L 2059 -325 
z
" transform="scale(0.015625)"/>
        <path id="DejaVuSans-20" transform="scale(0.015625)"/>
        <path id="DejaVuSans-31" d="M 794 531 
L 1825 531 
L 1825 4091 
L 703 3866 
L 703 4441 
L 1819 4666 
L 2450 4666 
L 2450 531 
L 3481 531 
L 3481 0 
L 794 0 
L 794 531 
z
" transform="scale(0.015625)"/>
       </defs>
       <use xlink:href="#DejaVuSans-44"/>
       <use xlink:href="#DejaVuSans-61" x="77.001953"/>
       <use xlink:href="#DejaVuSans-79" x="138.28125"/>
       <use xlink:href="#DejaVuSans-20" x="197.460938"/>
       <use xlink:href="#DejaVuSans-31" x="229.248047"/>
      </g>
     </g>
    </g>
    <g id="xtick_2">
     <g id="line2d_2">
      <g>
       <use xlink:href="#mf0f9e1ac55" x="168.155455" y="416.476875" style="stroke: #000000; stroke-width: 0.8"/>
      </g>
     </g>
     <g id="text_2">
      <!-- Day 2 -->
      <g transform="translate(153.511705 431.075312)scale(0.1 -0.1)">
       <defs>
        <path id="DejaVuSans-32" d="M 1228 531 
L 3431 531 
L 3431 0 
L 469 0 
L 469 531 
Q 828 903 1448 1529 
Q 2069 2156 2228 2338 
Q 2531 2678 2651 2914 
Q 2772 3150 2772 3378 
Q 2772 3750 2511 3984 
Q 2250 4219 1831 4219 
Q 1534 4219 1204 4116 
Q 875 4013 500 3803 
L 500 4441 
Q 881 4594 1212 4672 
Q 1544 4750 1819 4750 
Q 2544 4750 2975 4387 
Q 3406 4025 3406 3419 
Q 3406 3131 3298 2873 
Q 3191 2616 2906 2266 
Q 2828 2175 2409 1742 
Q 1991 1309 1228 531 
z
" transform="scale(0.015625)"/>
       </defs>
       <use xlink:href="#DejaVuSans-44"/>
       <use xlink:href="#DejaVuSans-61" x="77.001953"/>
       <use xlink:href="#DejaVuSans-79" x="138.28125"/>
       <use xlink:href="#DejaVuSans-20" x="197.460938"/>
       <use xlink:href="#DejaVuSans-32" x="229.248047"/>
      </g>
     </g>
    </g>
    <g id="xtick_3">
     <g id="line2d_3">
      <g>
       <use xlink:href="#mf0f9e1ac55" x="269.61" y="416.476875" style="stroke: #000000; stroke-width: 0.8"/>
      </g>
     </g>
     <g id="text_3">
      <!-- Day 4 -->
      <g transform="translate(254.96625 431.075312)scale(0.1 -0.1)">
       <defs>
        <path id="DejaVuSans-34" d="M 2419 4116 
L 825 1625 
L 2419 1625 
L 2419 4116 
z
M 2253 4666 
L 3047 4666 
L 3047 1625 
L 3713 1625 
L 3713 1100 
L 3047 1100 
L 3047 0 
L 2419 0 
L 2419 1100 
L 313 1100 
L 313 1709 
L 2253 4666 
z
" transform="scale(0.015625)"/>
       </defs>
       <use xlink:href="#DejaVuSans-44"/>
       <use xlink:href="#DejaVuSans-61" x="77.001953"/>
       <use xlink:href="#DejaVuSans-79" x="138.28125"/>
       <use xlink:href="#DejaVuSans-20" x="197.460938"/>
       <use xlink:href="#DejaVuSans-34" x="229.248047"/>
      </g>
     </g>
    </g>
    <g id="xtick_4">
     <g id="line2d_4">
      <g>
       <use xlink:href="#mf0f9e1ac55" x="371.064545" y="416.476875" style="stroke: #000000; stroke-width: 0.8"/>
      </g>
     </g>
     <g id="text_4">
      <!-- Day 10 -->
      <g transform="translate(353.239545 431.075312)scale(0.1 -0.1)">
       <defs>
        <path id="DejaVuSans-30" d="M 2034 4250 
Q 1547 4250 1301 3770 
Q 1056 3291 1056 2328 
Q 1056 1369 1301 889 
Q 1547 409 2034 409 
Q 2525 409 2770 889 
Q 3016 1369 3016 2328 
Q 3016 3291 2770 3770 
Q 2525 4250 2034 4250 
z
M 2034 4750 
Q 2819 4750 3233 4129 
Q 3647 3509 3647 2328 
Q 3647 1150 3233 529 
Q 2819 -91 2034 -91 
Q 1250 -91 836 529 
Q 422 1150 422 2328 
Q 422 3509 836 4129 
Q 1250 4750 2034 4750 
z
" transform="scale(0.015625)"/>
       </defs>
       <use xlink:href="#DejaVuSans-44"/>
       <use xlink:href="#DejaVuSans-61" x="77.001953"/>
       <use xlink:href="#DejaVuSans-79" x="138.28125"/>
       <use xlink:href="#DejaVuSans-20" x="197.460938"/>
       <use xlink:href="#DejaVuSans-31" x="229.248047"/>
       <use xlink:href="#DejaVuSans-30" x="292.871094"/>
      </g>
     </g>
    </g>
    <g id="xtick_5">
     <g id="line2d_5">
      <g>
       <use xlink:href="#mf0f9e1ac55" x="472.519091" y="416.476875" style="stroke: #000000; stroke-width: 0.8"/>
      </g>
     </g>
     <g id="text_5">
      <!-- Day 34 -->
      <g transform="translate(454.694091 431.075312)scale(0.1 -0.1)">
       <defs>
        <path id="DejaVuSans-33" d="M 2597 2516 
Q 3050 2419 3304 2112 
Q 3559 1806 3559 1356 
Q 3559 666 3084 287 
Q 2609 -91 1734 -91 
Q 1441 -91 1130 -33 
Q 819 25 488 141 
L 488 750 
Q 750 597 1062 519 
Q 1375 441 1716 441 
Q 2309 441 2620 675 
Q 2931 909 2931 1356 
Q 2931 1769 2642 2001 
Q 2353 2234 1838 2234 
L 1294 2234 
L 1294 2753 
L 1863 2753 
Q 2328 2753 2575 2939 
Q 2822 3125 2822 3475 
Q 2822 3834 2567 4026 
Q 2313 4219 1838 4219 
Q 1578 4219 1281 4162 
Q 984 4106 628 3988 
L 628 4550 
Q 988 4650 1302 4700 
Q 1616 4750 1894 4750 
Q 2613 4750 3031 4423 
Q 3450 4097 3450 3541 
Q 3450 3153 3228 2886 
Q 3006 2619 2597 2516 
z
" transform="scale(0.015625)"/>
       </defs>
       <use xlink:href="#DejaVuSans-44"/>
       <use xlink:href="#DejaVuSans-61" x="77.001953"/>
       <use xlink:href="#DejaVuSans-79" x="138.28125"/>
       <use xlink:href="#DejaVuSans-20" x="197.460938"/>
       <use xlink:href="#DejaVuSans-33" x="229.248047"/>
       <use xlink:href="#DejaVuSans-34" x="292.871094"/>
      </g>
     </g>
    </g>
    <g id="text_6">
     <!-- Timepoints -->
     <g transform="translate(230.984219 447.792812)scale(0.14 -0.14)">
      <defs>
       <path id="DejaVuSans-54" d="M -19 4666 
L 3928 4666 
L 3928 4134 
L 2272 4134 
L 2272 0 
L 1638 0 
L 1638 4134 
L -19 4134 
L -19 4666 
z
" transform="scale(0.015625)"/>
       <path id="DejaVuSans-69" d="M 603 3500 
L 1178 3500 
L 1178 0 
L 603 0 
L 603 3500 
z
M 603 4863 
L 1178 4863 
L 1178 4134 
L 603 4134 
L 603 4863 
z
" transform="scale(0.015625)"/>
       <path id="DejaVuSans-6d" d="M 3328 2828 
Q 3544 3216 3844 3400 
Q 4144 3584 4550 3584 
Q 5097 3584 5394 3201 
Q 5691 2819 5691 2113 
L 5691 0 
L 5113 0 
L 5113 2094 
Q 5113 2597 4934 2840 
Q 4756 3084 4391 3084 
Q 3944 3084 3684 2787 
Q 3425 2491 3425 1978 
L 3425 0 
L 2847 0 
L 2847 2094 
Q 2847 2600 2669 2842 
Q 2491 3084 2119 3084 
Q 1678 3084 1418 2786 
Q 1159 2488 1159 1978 
L 1159 0 
L 581 0 
L 581 3500 
L 1159 3500 
L 1159 2956 
Q 1356 3278 1631 3431 
Q 1906 3584 2284 3584 
Q 2666 3584 2933 3390 
Q 3200 3197 3328 2828 
z
" transform="scale(0.015625)"/>
       <path id="DejaVuSans-65" d="M 3597 1894 
L 3597 1613 
L 953 1613 
Q 991 1019 1311 708 
Q 1631 397 2203 397 
Q 2534 397 2845 478 
Q 3156 559 3463 722 
L 3463 178 
Q 3153 47 2828 -22 
Q 2503 -91 2169 -91 
Q 1331 -91 842 396 
Q 353 884 353 1716 
Q 353 2575 817 3079 
Q 1281 3584 2069 3584 
Q 2775 3584 3186 3129 
Q 3597 2675 3597 1894 
z
M 3022 2063 
Q 3016 2534 2758 2815 
Q 2500 3097 2075 3097 
Q 1594 3097 1305 2825 
Q 1016 2553 972 2059 
L 3022 2063 
z
" transform="scale(0.015625)"/>
       <path id="DejaVuSans-70" d="M 1159 525 
L 1159 -1331 
L 581 -1331 
L 581 3500 
L 1159 3500 
L 1159 2969 
Q 1341 3281 1617 3432 
Q 1894 3584 2278 3584 
Q 2916 3584 3314 3078 
Q 3713 2572 3713 1747 
Q 3713 922 3314 415 
Q 2916 -91 2278 -91 
Q 1894 -91 1617 61 
Q 1341 213 1159 525 
z
M 3116 1747 
Q 3116 2381 2855 2742 
Q 2594 3103 2138 3103 
Q 1681 3103 1420 2742 
Q 1159 2381 1159 1747 
Q 1159 1113 1420 752 
Q 1681 391 2138 391 
Q 2594 391 2855 752 
Q 3116 1113 3116 1747 
z
" transform="scale(0.015625)"/>
       <path id="DejaVuSans-6f" d="M 1959 3097 
Q 1497 3097 1228 2736 
Q 959 2375 959 1747 
Q 959 1119 1226 758 
Q 1494 397 1959 397 
Q 2419 397 2687 759 
Q 2956 1122 2956 1747 
Q 2956 2369 2687 2733 
Q 2419 3097 1959 3097 
z
M 1959 3584 
Q 2709 3584 3137 3096 
Q 3566 2609 3566 1747 
Q 3566 888 3137 398 
Q 2709 -91 1959 -91 
Q 1206 -91 779 398 
Q 353 888 353 1747 
Q 353 2609 779 3096 
Q 1206 3584 1959 3584 
z
" transform="scale(0.015625)"/>
       <path id="DejaVuSans-6e" d="M 3513 2113 
L 3513 0 
L 2938 0 
L 2938 2094 
Q 2938 2591 2744 2837 
Q 2550 3084 2163 3084 
Q 1697 3084 1428 2787 
Q 1159 2491 1159 1978 
L 1159 0 
L 581 0 
L 581 3500 
L 1159 3500 
L 1159 2956 
Q 1366 3272 1645 3428 
Q 1925 3584 2291 3584 
Q 2894 3584 3203 3211 
Q 3513 2838 3513 2113 
z
" transform="scale(0.015625)"/>
       <path id="DejaVuSans-74" d="M 1172 4494 
L 1172 3500 
L 2356 3500 
L 2356 3053 
L 1172 3053 
L 1172 1153 
Q 1172 725 1289 603 
Q 1406 481 1766 481 
L 2356 481 
L 2356 0 
L 1766 0 
Q 1100 0 847 248 
Q 594 497 594 1153 
L 594 3053 
L 172 3053 
L 172 3500 
L 594 3500 
L 594 4494 
L 1172 4494 
z
" transform="scale(0.015625)"/>
       <path id="DejaVuSans-73" d="M 2834 3397 
L 2834 2853 
Q 2591 2978 2328 3040 
Q 2066 3103 1784 3103 
Q 1356 3103 1142 2972 
Q 928 2841 928 2578 
Q 928 2378 1081 2264 
Q 1234 2150 1697 2047 
L 1894 2003 
Q 2506 1872 2764 1633 
Q 3022 1394 3022 966 
Q 3022 478 2636 193 
Q 2250 -91 1575 -91 
Q 1294 -91 989 -36 
Q 684 19 347 128 
L 347 722 
Q 666 556 975 473 
Q 1284 391 1588 391 
Q 1994 391 2212 530 
Q 2431 669 2431 922 
Q 2431 1156 2273 1281 
Q 2116 1406 1581 1522 
L 1381 1569 
Q 847 1681 609 1914 
Q 372 2147 372 2553 
Q 372 3047 722 3315 
Q 1072 3584 1716 3584 
Q 2034 3584 2315 3537 
Q 2597 3491 2834 3397 
z
" transform="scale(0.015625)"/>
      </defs>
      <use xlink:href="#DejaVuSans-54"/>
      <use xlink:href="#DejaVuSans-69" x="57.958984"/>
      <use xlink:href="#DejaVuSans-6d" x="85.742188"/>
      <use xlink:href="#DejaVuSans-65" x="183.154297"/>
      <use xlink:href="#DejaVuSans-70" x="244.677734"/>
      <use xlink:href="#DejaVuSans-6f" x="308.154297"/>
      <use xlink:href="#DejaVuSans-69" x="369.335938"/>
      <use xlink:href="#DejaVuSans-6e" x="397.119141"/>
      <use xlink:href="#DejaVuSans-74" x="460.498047"/>
      <use xlink:href="#DejaVuSans-73" x="499.707031"/>
     </g>
    </g>
   </g>
   <g id="matplotlib.axis_2">
    <g id="ytick_1">
     <g id="line2d_6">
      <defs>
       <path id="me1a832dac4" d="M 0 0 
L -3.5 0 
" style="stroke: #000000; stroke-width: 0.8"/>
      </defs>
      <g>
       <use xlink:href="#me1a832dac4" x="46.41" y="408.867463" style="stroke: #000000; stroke-width: 0.8"/>
      </g>
     </g>
     <g id="text_7">
      <!-- 0 -->
      <g transform="translate(33.0475 412.666682)scale(0.1 -0.1)">
       <use xlink:href="#DejaVuSans-30"/>
      </g>
     </g>
    </g>
    <g id="ytick_2">
     <g id="line2d_7">
      <g>
       <use xlink:href="#me1a832dac4" x="46.41" y="332.773346" style="stroke: #000000; stroke-width: 0.8"/>
      </g>
     </g>
     <g id="text_8">
      <!-- 10 -->
      <g transform="translate(26.685 336.572564)scale(0.1 -0.1)">
       <use xlink:href="#DejaVuSans-31"/>
       <use xlink:href="#DejaVuSans-30" x="63.623047"/>
      </g>
     </g>
    </g>
    <g id="ytick_3">
     <g id="line2d_8">
      <g>
       <use xlink:href="#me1a832dac4" x="46.41" y="256.679228" style="stroke: #000000; stroke-width: 0.8"/>
      </g>
     </g>
     <g id="text_9">
      <!-- 20 -->
      <g transform="translate(26.685 260.478447)scale(0.1 -0.1)">
       <use xlink:href="#DejaVuSans-32"/>
       <use xlink:href="#DejaVuSans-30" x="63.623047"/>
      </g>
     </g>
    </g>
    <g id="ytick_4">
     <g id="line2d_9">
      <g>
       <use xlink:href="#me1a832dac4" x="46.41" y="180.58511" style="stroke: #000000; stroke-width: 0.8"/>
      </g>
     </g>
     <g id="text_10">
      <!-- 30 -->
      <g transform="translate(26.685 184.384329)scale(0.1 -0.1)">
       <use xlink:href="#DejaVuSans-33"/>
       <use xlink:href="#DejaVuSans-30" x="63.623047"/>
      </g>
     </g>
    </g>
    <g id="ytick_5">
     <g id="line2d_10">
      <g>
       <use xlink:href="#me1a832dac4" x="46.41" y="104.490993" style="stroke: #000000; stroke-width: 0.8"/>
      </g>
     </g>
     <g id="text_11">
      <!-- 40 -->
      <g transform="translate(26.685 108.290211)scale(0.1 -0.1)">
       <use xlink:href="#DejaVuSans-34"/>
       <use xlink:href="#DejaVuSans-30" x="63.623047"/>
      </g>
     </g>
    </g>
    <g id="ytick_6">
     <g id="line2d_11">
      <g>
       <use xlink:href="#me1a832dac4" x="46.41" y="28.396875" style="stroke: #000000; stroke-width: 0.8"/>
      </g>
     </g>
     <g id="text_12">
      <!-- 50 -->
      <g transform="translate(26.685 32.196094)scale(0.1 -0.1)">
       <defs>
        <path id="DejaVuSans-35" d="M 691 4666 
L 3169 4666 
L 3169 4134 
L 1269 4134 
L 1269 2991 
Q 1406 3038 1543 3061 
Q 1681 3084 1819 3084 
Q 2600 3084 3056 2656 
Q 3513 2228 3513 1497 
Q 3513 744 3044 326 
Q 2575 -91 1722 -91 
Q 1428 -91 1123 -41 
Q 819 9 494 109 
L 494 744 
Q 775 591 1075 516 
Q 1375 441 1709 441 
Q 2250 441 2565 725 
Q 2881 1009 2881 1497 
Q 2881 1984 2565 2268 
Q 2250 2553 1709 2553 
Q 1456 2553 1204 2497 
Q 953 2441 691 2322 
L 691 4666 
z
" transform="scale(0.015625)"/>
       </defs>
       <use xlink:href="#DejaVuSans-35"/>
       <use xlink:href="#DejaVuSans-30" x="63.623047"/>
      </g>
     </g>
    </g>
    <g id="text_13">
     <!-- Unit (pg/mL) -->
     <g transform="translate(19.3575 272.608125)rotate(-90)scale(0.16 -0.16)">
      <defs>
       <path id="DejaVuSans-55" d="M 556 4666 
L 1191 4666 
L 1191 1831 
Q 1191 1081 1462 751 
Q 1734 422 2344 422 
Q 2950 422 3222 751 
Q 3494 1081 3494 1831 
L 3494 4666 
L 4128 4666 
L 4128 1753 
Q 4128 841 3676 375 
Q 3225 -91 2344 -91 
Q 1459 -91 1007 375 
Q 556 841 556 1753 
L 556 4666 
z
" transform="scale(0.015625)"/>
       <path id="DejaVuSans-28" d="M 1984 4856 
Q 1566 4138 1362 3434 
Q 1159 2731 1159 2009 
Q 1159 1288 1364 580 
Q 1569 -128 1984 -844 
L 1484 -844 
Q 1016 -109 783 600 
Q 550 1309 550 2009 
Q 550 2706 781 3412 
Q 1013 4119 1484 4856 
L 1984 4856 
z
" transform="scale(0.015625)"/>
       <path id="DejaVuSans-67" d="M 2906 1791 
Q 2906 2416 2648 2759 
Q 2391 3103 1925 3103 
Q 1463 3103 1205 2759 
Q 947 2416 947 1791 
Q 947 1169 1205 825 
Q 1463 481 1925 481 
Q 2391 481 2648 825 
Q 2906 1169 2906 1791 
z
M 3481 434 
Q 3481 -459 3084 -895 
Q 2688 -1331 1869 -1331 
Q 1566 -1331 1297 -1286 
Q 1028 -1241 775 -1147 
L 775 -588 
Q 1028 -725 1275 -790 
Q 1522 -856 1778 -856 
Q 2344 -856 2625 -561 
Q 2906 -266 2906 331 
L 2906 616 
Q 2728 306 2450 153 
Q 2172 0 1784 0 
Q 1141 0 747 490 
Q 353 981 353 1791 
Q 353 2603 747 3093 
Q 1141 3584 1784 3584 
Q 2172 3584 2450 3431 
Q 2728 3278 2906 2969 
L 2906 3500 
L 3481 3500 
L 3481 434 
z
" transform="scale(0.015625)"/>
       <path id="DejaVuSans-2f" d="M 1625 4666 
L 2156 4666 
L 531 -594 
L 0 -594 
L 1625 4666 
z
" transform="scale(0.015625)"/>
       <path id="DejaVuSans-4c" d="M 628 4666 
L 1259 4666 
L 1259 531 
L 3531 531 
L 3531 0 
L 628 0 
L 628 4666 
z
" transform="scale(0.015625)"/>
       <path id="DejaVuSans-29" d="M 513 4856 
L 1013 4856 
Q 1481 4119 1714 3412 
Q 1947 2706 1947 2009 
Q 1947 1309 1714 600 
Q 1481 -109 1013 -844 
L 513 -844 
Q 928 -128 1133 580 
Q 1338 1288 1338 2009 
Q 1338 2731 1133 3434 
Q 928 4138 513 4856 
z
" transform="scale(0.015625)"/>
      </defs>
      <use xlink:href="#DejaVuSans-55"/>
      <use xlink:href="#DejaVuSans-6e" x="73.193359"/>
      <use xlink:href="#DejaVuSans-69" x="136.572266"/>
      <use xlink:href="#DejaVuSans-74" x="164.355469"/>
      <use xlink:href="#DejaVuSans-20" x="203.564453"/>
      <use xlink:href="#DejaVuSans-28" x="235.351562"/>
      <use xlink:href="#DejaVuSans-70" x="274.365234"/>
      <use xlink:href="#DejaVuSans-67" x="337.841797"/>
      <use xlink:href="#DejaVuSans-2f" x="401.318359"/>
      <use xlink:href="#DejaVuSans-6d" x="435.009766"/>
      <use xlink:href="#DejaVuSans-4c" x="532.421875"/>
      <use xlink:href="#DejaVuSans-29" x="588.134766"/>
     </g>
    </g>
   </g>
   <g id="line2d_12">
    <path d="M 66.700909 398.602367 
L 168.155455 398.797675 
L 269.61 399.178146 
L 371.064545 396.380419 
L 472.519091 399.135026 
" clip-path="url(#p87ffccee73)" style="fill: none; stroke: #d55e00; stroke-width: 1.5; stroke-linecap: square"/>
   </g>
   <g id="line2d_13">
    <path d="M 66.700909 386.436608 
L 168.155455 390.731699 
L 269.61 393.826193 
L 371.064545 394.688593 
L 472.519091 375.424099 
" clip-path="url(#p87ffccee73)" style="fill: none; stroke: #0072b2; stroke-width: 1.5; stroke-linecap: square"/>
   </g>
   <g id="line2d_14">
    <path d="M 66.700909 393.969926 
L 168.155455 375.994804 
L 269.61 395.268357 
L 371.064545 397.053851 
L 472.519091 364.978067 
" clip-path="url(#p87ffccee73)" style="fill: none; stroke: #b07aa1; stroke-width: 1.5; stroke-linecap: square"/>
   </g>
   <g id="patch_3">
    <path d="M 46.41 416.476875 
L 46.41 28.396875 
" style="fill: none; stroke: #000000; stroke-width: 0.8; stroke-linejoin: miter; stroke-linecap: square"/>
   </g>
   <g id="patch_4">
    <path d="M 492.81 416.476875 
L 492.81 28.396875 
" style="fill: none; stroke: #000000; stroke-width: 0.8; stroke-linejoin: miter; stroke-linecap: square"/>
   </g>
   <g id="patch_5">
    <path d="M 46.41 416.476875 
L 492.81 416.476875 
" style="fill: none; stroke: #000000; stroke-width: 0.8; stroke-linejoin: miter; stroke-linecap: square"/>
   </g>
   <g id="patch_6">
    <path d="M 46.41 28.396875 
L 492.81 28.396875 
" style="fill: none; stroke: #000000; stroke-width: 0.8; stroke-linejoin: miter; stroke-linecap: square"/>
   </g>
   <g id="text_14">
    <!-- IL-6 -->
    <g transform="translate(251.292813 22.396875)scale(0.2 -0.2)">
     <defs>
      <path id="DejaVuSans-49" d="M 628 4666 
L 1259 4666 
L 1259 0 
L 628 0 
L 628 4666 
z
" transform="scale(0.015625)"/>
      <path id="DejaVuSans-2d" d="M 313 2009 
L 1997 2009 
L 1997 1497 
L 313 1497 
L 313 2009 
z
" transform="scale(0.015625)"/>
      <path id="DejaVuSans-36" d="M 2113 2584 
Q 1688 2584 1439 2293 
Q 1191 2003 1191 1497 
Q 1191 994 1439 701 
Q 1688 409 2113 409 
Q 2538 409 2786 701 
Q 3034 994 3034 1497 
Q 3034 2003 2786 2293 
Q 2538 2584 2113 2584 
z
M 3366 4563 
L 3366 3988 
Q 3128 4100 2886 4159 
Q 2644 4219 2406 4219 
Q 1781 4219 1451 3797 
Q 1122 3375 1075 2522 
Q 1259 2794 1537 2939 
Q 1816 3084 2150 3084 
Q 2853 3084 3261 2657 
Q 3669 2231 3669 1497 
Q 3669 778 3244 343 
Q 2819 -91 2113 -91 
Q 1303 -91 875 529 
Q 447 1150 447 2328 
Q 447 3434 972 4092 
Q 1497 4750 2381 4750 
Q 2619 4750 2861 4703 
Q 3103 4656 3366 4563 
z
" transform="scale(0.015625)"/>
     </defs>
     <use xlink:href="#DejaVuSans-49"/>
     <use xlink:href="#DejaVuSans-4c" x="29.492188"/>
     <use xlink:href="#DejaVuSans-2d" x="83.455078"/>
     <use xlink:href="#DejaVuSans-36" x="119.539062"/>
    </g>
   </g>
  </g>
 </g>
 <defs>
  <clipPath id="p87ffccee73">
   <rect x="46.41" y="28.396875" width="446.4" height="388.08"/>
  </clipPath>
 </defs>
</svg>
